<svg viewBox="0 0 48 44" xmlns="http://www.w3.org/2000/svg">
  <g fill="#FFF" fill-rule="nonzero">
    <path d="M31 30c-.5522847 0-1 .4477153-1 1v2.59c0 .4860106-.3939894.88-.88.88H13c-.2939305.0024704-.5718882.1341345-.76.36l-4.59 5.43v-4.79c0-.5522847-.44771525-1-1-1H2.88c-.48601058 0-.88-.3939894-.88-.88V12.88c0-.4860106.39398942-.88.88-.88H11c.5522847 0 1-.4477153 1-1s-.4477153-1-1-1H2.88C1.28941992 10 0 11.2894199 0 12.88v20.71c0 1.5905801 1.28941992 2.88 2.88 2.88h2.74V43c-.00082624.4218892.26321136.798913.65996197.9423708.3967506.1434579.84085465.0224853 1.11003803-.3023708l6.05-7.17h15.68c.7638235 0 1.4963628-.3034277 2.0364675-.8435325C31.6965723 35.0863628 32 34.3538235 32 33.59V31c0-.5522847-.4477153-1-1-1z"/>
    <path d="M45 0H17c-1.6568542 0-3 1.34314575-3 3v22c0 1.6568542 1.3431458 3 3 3h16.77l6.47 7.65c.2706125.3161227.7087096.431621 1.1.29.3959474-.1431502.6598209-.5189699.66-.94v-7h3c1.6568542 0 3-1.3431458 3-3V3c0-1.65685425-1.3431458-3-3-3zm1 25c0 .5522847-.4477153 1-1 1h-4c-.5522847 0-1 .4477153-1 1v5.27l-5-5.92c-.1900027-.2221378-.4676882-.3500192-.76-.35H17c-.5522847 0-1-.4477153-1-1V3c0-.55228475.4477153-1 1-1h28c.5522847 0 1 .44771525 1 1v22z"/>
    <path d="M40 13H22c-.5522847 0-1 .4477153-1 1s.4477153 1 1 1h18c.5522847 0 1-.4477153 1-1s-.4477153-1-1-1zM40 19H22c-.5522847 0-1 .4477153-1 1s.4477153 1 1 1h18c.5522847 0 1-.4477153 1-1s-.4477153-1-1-1zM40 7H22c-.5522847 0-1 .44771525-1 1s.4477153 1 1 1h18c.5522847 0 1-.44771525 1-1s-.4477153-1-1-1z"/>
  </g>
</svg>
